<?xml version="1.0" encoding="UTF-8"?>
<svg width="44px" height="44px" viewBox="0 0 44 44" version="1.1" xmlns="http://www.w3.org/2000/svg" xmlns:xlink="http://www.w3.org/1999/xlink">
    <g id="Page-1" stroke="none" stroke-width="1" fill="none" fill-rule="evenodd">
        <g id="noun_Close_806723" fill="#999">
            <g id="Group">
                <path d="M0.927,5.397 C-0.308,4.162 -0.308,2.161 0.927,0.926 C2.16,-0.308 4.162,-0.309 5.397,0.926 L42.647,38.176 C43.881,39.409 43.88,41.411 42.646,42.646 C41.412,43.88 39.411,43.88 38.176,42.647 L0.927,5.397 Z" id="Path"></path>
                <path d="M5.397,42.647 C4.163,43.881 2.161,43.881 0.926,42.646 C-0.309,41.412 -0.308,39.411 0.927,38.176 L38.175,0.926 C39.41,-0.308 41.411,-0.31 42.646,0.925 C43.881,2.159 43.881,4.162 42.646,5.397 L5.397,42.647 Z" id="Path"></path>
            </g>
        </g>
    </g>
</svg>