<svg class="lds-spinner" width="200px"  height="200px"  xmlns="http://www.w3.org/2000/svg" xmlns:xlink="http://www.w3.org/1999/xlink" viewBox="0 0 100 100" preserveAspectRatio="xMidYMid" style="background: none;"><g transform="rotate(0 50 50)">
  <rect x="47.5" y="30" rx="28.5" ry="18" width="5" height="10" fill="#f0141e">
    <animate attributeName="opacity" values="1;0" keyTimes="0;1" dur="1.2s" begin="-1.0799999999999998s" repeatCount="indefinite"></animate>
  </rect>
</g><g transform="rotate(36 50 50)">
  <rect x="47.5" y="30" rx="28.5" ry="18" width="5" height="10" fill="#f0141e">
    <animate attributeName="opacity" values="1;0" keyTimes="0;1" dur="1.2s" begin="-0.96s" repeatCount="indefinite"></animate>
  </rect>
</g><g transform="rotate(72 50 50)">
  <rect x="47.5" y="30" rx="28.5" ry="18" width="5" height="10" fill="#f0141e">
    <animate attributeName="opacity" values="1;0" keyTimes="0;1" dur="1.2s" begin="-0.8400000000000001s" repeatCount="indefinite"></animate>
  </rect>
</g><g transform="rotate(108 50 50)">
  <rect x="47.5" y="30" rx="28.5" ry="18" width="5" height="10" fill="#f0141e">
    <animate attributeName="opacity" values="1;0" keyTimes="0;1" dur="1.2s" begin="-0.72s" repeatCount="indefinite"></animate>
  </rect>
</g><g transform="rotate(144 50 50)">
  <rect x="47.5" y="30" rx="28.5" ry="18" width="5" height="10" fill="#f0141e">
    <animate attributeName="opacity" values="1;0" keyTimes="0;1" dur="1.2s" begin="-0.6s" repeatCount="indefinite"></animate>
  </rect>
</g><g transform="rotate(180 50 50)">
  <rect x="47.5" y="30" rx="28.5" ry="18" width="5" height="10" fill="#f0141e">
    <animate attributeName="opacity" values="1;0" keyTimes="0;1" dur="1.2s" begin="-0.48s" repeatCount="indefinite"></animate>
  </rect>
</g><g transform="rotate(216 50 50)">
  <rect x="47.5" y="30" rx="28.5" ry="18" width="5" height="10" fill="#f0141e">
    <animate attributeName="opacity" values="1;0" keyTimes="0;1" dur="1.2s" begin="-0.36s" repeatCount="indefinite"></animate>
  </rect>
</g><g transform="rotate(252 50 50)">
  <rect x="47.5" y="30" rx="28.5" ry="18" width="5" height="10" fill="#f0141e">
    <animate attributeName="opacity" values="1;0" keyTimes="0;1" dur="1.2s" begin="-0.24s" repeatCount="indefinite"></animate>
  </rect>
</g><g transform="rotate(288 50 50)">
  <rect x="47.5" y="30" rx="28.5" ry="18" width="5" height="10" fill="#f0141e">
    <animate attributeName="opacity" values="1;0" keyTimes="0;1" dur="1.2s" begin="-0.12s" repeatCount="indefinite"></animate>
  </rect>
</g><g transform="rotate(324 50 50)">
  <rect x="47.5" y="30" rx="28.5" ry="18" width="5" height="10" fill="#f0141e">
    <animate attributeName="opacity" values="1;0" keyTimes="0;1" dur="1.2s" begin="0s" repeatCount="indefinite"></animate>
  </rect>
</g></svg>